<?xml version="1.0" encoding="utf-8"?>
<!-- Generator: Adobe Illustrator 23.0.3, SVG Export Plug-In . SVG Version: 6.00 Build 0)  -->
<svg version="1.1" id="Capa_1" xmlns="http://www.w3.org/2000/svg" xmlns:xlink="http://www.w3.org/1999/xlink" x="0px" y="0px"
	 width="24px" height="24px" viewBox="0 0 23.3 23.3" style="enable-background:new 0 0 23.3 23.3;" xml:space="preserve">
<path fill="#ffffff" d="M14,13.9h6.9c1.1,0,1.9-0.8,1.9-1.9v-0.9c0-1.1-0.8-1.9-1.9-1.9H14V2.3c0-1.1-0.8-1.9-1.9-1.9h-0.9c-1.1,0-1.9,0.8-1.9,1.9
	v6.9H2.3c-1.1,0-1.9,0.8-1.9,1.9v0.9c0,1.1,0.8,1.9,1.9,1.9h6.9v6.9c0,1.1,0.8,1.9,1.9,1.9h0.9c1.1,0,1.9-0.8,1.9-1.9V13.9z"/>
</svg>
